<?xml version="1.0" standalone="no"?>
<svg xmlns:xlink="http://www.w3.org/1999/xlink" id="wave" style="transform:rotate(180deg); transition: 0.3s" viewBox="0 0 1440 110" version="1.1" xmlns="http://www.w3.org/2000/svg"><defs><linearGradient id="sw-gradient-0" x1="0" x2="0" y1="1" y2="0"><stop stop-color="rgba(255, 247, 245, 1)" offset="0%"/><stop stop-color="rgba(255, 247, 245, 1)" offset="100%"/></linearGradient></defs><path style="transform:translate(0, 0px); opacity:1" fill="url(#sw-gradient-0)" d="M0,0L120,7.3C240,15,480,29,720,34.8C960,40,1200,37,1440,34.8C1680,33,1920,33,2160,40.3C2400,48,2640,62,2880,56.8C3120,51,3360,26,3600,12.8C3840,0,4080,0,4320,7.3C4560,15,4800,29,5040,31.2C5280,33,5520,22,5760,31.2C6000,40,6240,70,6480,75.2C6720,81,6960,62,7200,49.5C7440,37,7680,29,7920,29.3C8160,29,8400,37,8640,33C8880,29,9120,15,9360,12.8C9600,11,9840,22,10080,25.7C10320,29,10560,26,10800,31.2C11040,37,11280,51,11520,55C11760,59,12000,51,12240,47.7C12480,44,12720,44,12960,47.7C13200,51,13440,59,13680,60.5C13920,62,14160,59,14400,64.2C14640,70,14880,84,15120,80.7C15360,77,15600,55,15840,38.5C16080,22,16320,11,16560,18.3C16800,26,17040,51,17160,64.2L17280,77L17280,110L17160,110C17040,110,16800,110,16560,110C16320,110,16080,110,15840,110C15600,110,15360,110,15120,110C14880,110,14640,110,14400,110C14160,110,13920,110,13680,110C13440,110,13200,110,12960,110C12720,110,12480,110,12240,110C12000,110,11760,110,11520,110C11280,110,11040,110,10800,110C10560,110,10320,110,10080,110C9840,110,9600,110,9360,110C9120,110,8880,110,8640,110C8400,110,8160,110,7920,110C7680,110,7440,110,7200,110C6960,110,6720,110,6480,110C6240,110,6000,110,5760,110C5520,110,5280,110,5040,110C4800,110,4560,110,4320,110C4080,110,3840,110,3600,110C3360,110,3120,110,2880,110C2640,110,2400,110,2160,110C1920,110,1680,110,1440,110C1200,110,960,110,720,110C480,110,240,110,120,110L0,110Z"/></svg>