<?xml version="1.0" standalone="no"?>
<svg xmlns:xlink="http://www.w3.org/1999/xlink" id="wave" style="transform:rotate(180deg); transition: 0.3s" viewBox="0 0 1440 120" version="1.1" xmlns="http://www.w3.org/2000/svg"><defs><linearGradient id="sw-gradient-0" x1="0" x2="0" y1="1" y2="0"><stop stop-color="rgba(255, 246, 246, 1)" offset="0%"/><stop stop-color="rgba(255, 246, 246, 1)" offset="100%"/></linearGradient></defs><path style="transform:translate(0, 0px); opacity:1" fill="url(#sw-gradient-0)" d="M0,48L13.3,48C26.7,48,53,48,80,54C106.7,60,133,72,160,76C186.7,80,213,76,240,80C266.7,84,293,96,320,86C346.7,76,373,44,400,36C426.7,28,453,44,480,60C506.7,76,533,92,560,98C586.7,104,613,100,640,94C666.7,88,693,80,720,74C746.7,68,773,64,800,58C826.7,52,853,44,880,52C906.7,60,933,84,960,92C986.7,100,1013,92,1040,78C1066.7,64,1093,44,1120,44C1146.7,44,1173,64,1200,62C1226.7,60,1253,36,1280,24C1306.7,12,1333,12,1360,26C1386.7,40,1413,68,1440,72C1466.7,76,1493,56,1520,42C1546.7,28,1573,20,1600,14C1626.7,8,1653,4,1680,12C1706.7,20,1733,40,1760,40C1786.7,40,1813,20,1840,24C1866.7,28,1893,56,1907,70L1920,84L1920,120L1906.7,120C1893.3,120,1867,120,1840,120C1813.3,120,1787,120,1760,120C1733.3,120,1707,120,1680,120C1653.3,120,1627,120,1600,120C1573.3,120,1547,120,1520,120C1493.3,120,1467,120,1440,120C1413.3,120,1387,120,1360,120C1333.3,120,1307,120,1280,120C1253.3,120,1227,120,1200,120C1173.3,120,1147,120,1120,120C1093.3,120,1067,120,1040,120C1013.3,120,987,120,960,120C933.3,120,907,120,880,120C853.3,120,827,120,800,120C773.3,120,747,120,720,120C693.3,120,667,120,640,120C613.3,120,587,120,560,120C533.3,120,507,120,480,120C453.3,120,427,120,400,120C373.3,120,347,120,320,120C293.3,120,267,120,240,120C213.3,120,187,120,160,120C133.3,120,107,120,80,120C53.3,120,27,120,13,120L0,120Z"/></svg>